# xmcd CD Database Entry
#
# Track frame offsets:
# 182
# 57707
# 97900
# 151302
# 212232
# 242805
#
# Disc length: 3743 seconds
#
# Revision: 3
# Processed by: cddbd v1.4PL0 Copyright (c) Steve Scherf et al.
# Submitted via: tcd 2.0b
#
DISCID=4f0e9d06
DTITLE=Mozart - Concertos for Piano 22 and 27
DYEAR=1900
DGENRE=
TTITLE0=Concerto 22 - Allegro
TTITLE1=Concerto 22 - Andante
TTITLE2=Concerto 22 - Allegro Andantino Cantabile
TTITLE3=Concerto 27 - Allegro
TTITLE4=Concerto 27 - Larghetto
TTITLE5=Concerto 27 - Allegro
EXTD=
EXTT0=Concerto pour Piano nº 22 en Mi bemol majeur K 482
EXTT1=Concerto pour Piano nº 22 en Mi bemol majeur K 482
EXTT2=
EXTT3=
EXTT4=
EXTT5=
PLAYORDER=
